<svg viewBox="0 0 1024 1024" version="1.1" xmlns="http://www.w3.org/2000/svg" width="16" height="16">
  <path d="M506.013538 894.188308a33.083077 33.083077 0 0 0 66.008616 0 33.083077 33.083077 0 0 0-66.008616 0z" fill="currentColor"/>
  <path d="M864.019692 388.726154v-4.411077a128 128 0 0 0-128-128h-224.216615L429.292308 145.408c-7.404308-12.918154-17.998769-16.226462-27.293539-15.990154l-0.118154-0.118154H192.118154a128 128 0 0 0-128 128v542.089846a128 128 0 0 0 128 128h214.882461v-0.393846a32.964923 32.964923 0 1 0 0-65.772307l-3.111384 0.078769H222.916923a64.078769 64.078769 0 0 1-62.030769-79.990154l73.097846-282.387692 0.196923-0.118154c6.695385-28.120615 31.901538-48.994462 62.109539-49.112616l0.196923-0.078769h532.204307c1.299692-0.118154 2.520615-0.118154 3.820308-0.118154a64.078769 64.078769 0 0 1 61.006769 83.416616v0.078769l-72.507077 279.788308c-0.118154 0.630154-0.315077 1.102769-0.393846 1.732923l-1.536 5.789538-0.472615 0.393846c-1.496615 3.938462-3.426462 7.483077-5.513846 11.027693h-1.299693c-2.599385 4.686769-5.789538 9.058462-9.491692 12.878769-11.421538 10.633846-26.702769 17.092923-43.401846 17.092923-1.299692 0-2.599385 0-3.820308-0.078769h-80.777846c-0.984615-0.118154-2.087385-0.118154-3.111385-0.118154a32.964923 32.964923 0 1 0 0 65.772308v0.236307h91.805539l0.512-0.393846a127.921231 127.921231 0 0 0 123.195077-94.995692l0.196923-0.236308 67.780923-285.499077a128.236308 128.236308 0 0 0-90.702769-157.696zM292.509538 383.763692a128.196923 128.196923 0 0 0-125.518769 102.715077l-0.472615 0.393846-38.006154 160.295385V256.984615c0-35.288615 28.672-64 64-64h190.503385l82.707692 111.300923c6.577231 11.421538 19.180308 17.211077 31.507692 15.832616h238.473846c35.209846 0 63.803077 28.475077 64 63.684923H292.509538z" fill="currentColor"/>
</svg>

